<svg id="search" xmlns="http://www.w3.org/2000/svg" width="103.494" height="100.982" viewBox="0 0 103.494 100.982">
  <path id="Path_1" data-name="Path 1" d="M0,0H103.494V100.982H0Z" fill="none"/>
  <path id="Path_2" data-name="Path 2" d="M70.181,60.54H65.935l-1.5-1.412A33.326,33.326,0,0,0,72.868,37c0-18.779-15.64-34-34.934-34S3,18.222,3,37,18.64,71,37.934,71a35.344,35.344,0,0,0,22.734-8.212l1.451,1.465v4.132l26.872,26.1L97,86.694Zm-32.247,0C24.552,60.54,13.749,50.026,13.749,37s10.8-23.539,24.185-23.539S62.119,23.976,62.119,37,51.317,60.54,37.934,60.54Z" transform="translate(1.375 1.375)"/>
</svg>
